# xmcd CD database file
#
# Track frame offsets:
#	150
#	10552
#	23080
#	33725
#	44802
#	57165
#	70427
#	81075
#	92065
#	104105
#	114850
#	124575
#	139322
#	151210
#	161200
#	175019
#	187214
#	198574
#	209861
#	224924
#	235121
#	246781
#	259686
#	270561
#	283106
#	302846
#	316646
#	328838
#
# Disc length: 4623 seconds
#
# Revision: 1
# Processed by: cddbd v1.5.1PL0 Copyright (c) Steve Scherf et al.
# Submitted via: CDex 1.40Beta8
#
DISCID=ac120d1c
DTITLE=Country - Country
DYEAR=1900
DGENRE=Country
TTITLE0=George Jones - Walk Through This World With Me
TTITLE1=Johnny Cash w June Carter - Jackson
TTITLE2=Statler Brothers - Flowers on the Wall
TTITLE3=Roger Miller - King of the Road
TTITLE4=Merle Haggard - Okie from Muskogee
TTITLE5=Kenny Rogers - Ruby Don't Take Your Love to Town
TTITLE6=Johnny Cash - Daddy Sang Bass
TTITLE7=Elvis Presley - Crying in the Chapel
TTITLE8=Eddy Arnold - Make the World Go Away
TTITLE9=Waylon Jennings - Only Daddy That'll Walk the Line
TTITLE10=Loretta Lynn - Don't Come Home a Drinkin"
TTITLE11=Je
TTITLE12=Henson Cargill - Skip a Rope
TTITLE13=Merle haggard - mama Tried
TTITLE14=Gl
TTITLE15=Tammy Wynette - Stand By Your Man
TTITLE16=Buck Owens - Crying Time
TTITLE17=Sonny James - Take Good Care of her
TTITLE18=Marty Robbins - I Walk Alone
TTITLE19=Jim Reeves - Is it Really Over
TTITLE20=Jack Greene - There Goes My Everything
TTITLE21=Conway Twitty - Next In Line
TTITLE22=Porter Waggoner - Green Green Grass of Home
TTITLE23=Jim Reeves - Blue Side of Lonesome
TTITLE24=El
TTITLE25=Charley Pride - All i Have to Offer You
TTITLE26=Glen Campbell - Galveston
TTITLE27=Bobby Goldsboro - Honey
EXTD=ID3G: 2
EXTT0=
EXTT1=
EXTT2=
EXTT3=
EXTT4=
EXTT5=
EXTT6=
EXTT7=
EXTT8=
EXTT9=
EXTT10=
EXTT11=
EXTT12=
EXTT13=
EXTT14=
EXTT15=
EXTT16=
EXTT17=
EXTT18=
EXTT19=
EXTT20=
EXTT21=
EXTT22=
EXTT23=
EXTT24=
EXTT25=
EXTT26=
EXTT27=
PLAYORDER=
